<?xml version="1.0" encoding="UTF-8"?>
<svg version="1.1" xmlns="http://www.w3.org/2000/svg" width="512" height="512">
<path d="M0 0 C168.96 0 337.92 0 512 0 C512 168.96 512 337.92 512 512 C343.04 512 174.08 512 0 512 C0 343.04 0 174.08 0 0 Z " fill="#0A1128" transform="translate(0,0)"/>
<path d="M0 0 C0.66 0 1.32 0 2 0 C13.57519532 30.86718751 13.57519532 30.86718751 14.29372025 32.78325653 C14.76826381 34.04870435 15.24280959 35.31415133 15.71735764 36.57959747 C16.88415419 39.69102551 18.05090399 42.80247107 19.21759033 45.91394043 C21.97619286 53.27091755 21.97619286 53.27091755 24.73730469 60.62695312 C29.19867737 72.5080947 33.61874637 84.40455461 38.04101562 96.30029297 C39.06883102 99.0648454 40.09683825 101.82932636 41.125 104.59375 C41.45627899 105.48448212 41.78755798 106.37521423 42.12887573 107.29293823 C44.63556439 114.02914406 47.15706716 120.75968048 49.68798828 127.48681641 C56 144.3885374 56 144.3885374 56 147 C102.2 147 148.4 147 196 147 C193.33669079 149.66330921 191.16100546 151.74353129 188.19140625 153.890625 C187.45535156 154.426875 186.71929687 154.963125 185.9609375 155.515625 C185.16945313 156.08796875 184.37796875 156.6603125 183.5625 157.25 C176.47740505 162.4187246 169.46130441 167.66576135 162.5 173 C155.82177737 178.1137439 149.10139462 183.15915286 142.3125 188.125 C136.12743782 192.65115477 130.03098579 197.27053794 124 202 C116.33016227 208.01410804 108.52332637 213.82003622 100.66015625 219.578125 C93.72717442 224.65678507 86.86495495 229.82997876 80 235 C80.61971293 239.76751729 81.981343 244.01013651 83.73046875 248.4609375 C84.00337234 249.16916656 84.27627594 249.87739563 84.55744934 250.60708618 C85.42880069 252.8651633 86.30786665 255.12013794 87.1875 257.375 C88.04339739 259.58406508 88.89767359 261.79375247 89.75186157 264.003479 C90.32487631 265.48531548 90.89859606 266.9668795 91.47299194 268.44818115 C93.31203189 273.19606808 95.11624786 277.95562119 96.89453125 282.7265625 C100.67217556 292.85259478 104.59358336 302.9231234 108.5 313 C112.66444355 323.74247517 116.8261774 334.48368604 120.84584045 345.28129578 C122.59220292 349.95543312 124.40620858 354.60023881 126.24609375 359.23828125 C126.77809623 360.5852464 127.30999799 361.93225133 127.84179688 363.27929688 C128.64922827 365.32411005 129.45958129 367.36754609 130.27807617 369.40795898 C131.08855318 371.43143336 131.88711815 373.45926239 132.68359375 375.48828125 C133.15337646 376.66946533 133.62315918 377.85064941 134.10717773 379.06762695 C135 382 135 382 134 385 C133.42636719 384.51273437 132.85273438 384.02546875 132.26171875 383.5234375 C125.58907591 377.95446396 118.69104649 372.7747341 111.67651367 367.64794922 C105.56103352 363.17083062 99.51690142 358.60858398 93.5 354 C86.88072344 348.93323584 80.22496492 343.9256432 73.5 339 C65.87259983 333.4133758 58.34355435 327.70723662 50.8359375 321.9609375 C44.3456416 317.00227485 37.79833143 312.12883202 31.19482422 307.32202148 C26.83760238 304.13796814 22.55426985 300.88185574 18.3203125 297.53515625 C17.37091797 296.79072266 16.42152344 296.04628906 15.44335938 295.27929688 C13.59871968 293.82838485 11.76361462 292.36524769 9.93945312 290.88867188 C9.10607422 290.23576172 8.27269531 289.58285156 7.4140625 288.91015625 C6.6813916 288.32371338 5.9487207 287.73727051 5.19384766 287.13305664 C3.04035992 285.7881734 3.04035992 285.7881734 0.5 286.12402344 C-2.27663525 287.0969304 -4.10293911 288.28864215 -6.4140625 290.10546875 C-7.24768311 290.75209473 -8.08130371 291.3987207 -8.94018555 292.06494141 C-9.82617432 292.76538574 -10.71216309 293.46583008 -11.625 294.1875 C-13.51846046 295.65893103 -15.41301391 297.12895654 -17.30859375 298.59765625 C-18.26233887 299.33902832 -19.21608398 300.08040039 -20.19873047 300.84423828 C-24.31052334 304.00853417 -28.49488454 307.06910555 -32.6875 310.125 C-38.87338283 314.64998932 -44.96908112 319.27053842 -51 324 C-57.80240433 329.3344624 -64.70659786 334.50593814 -71.68359375 339.609375 C-77.67751275 344.00231238 -83.59956413 348.48244488 -89.5 353 C-97.83469283 359.37879566 -106.24818064 365.64012684 -114.7109375 371.84765625 C-120.17331294 375.85509991 -125.59192436 379.91965551 -131 384 C-132.28899591 380.13301227 -131.43800021 378.86260252 -129.97265625 375.1015625 C-129.51415283 373.91046875 -129.05564941 372.719375 -128.58325195 371.4921875 C-128.07646963 370.20307192 -127.56954919 368.91401063 -127.0625 367.625 C-126.55010218 366.30244064 -126.03863407 364.97952073 -125.52807617 363.65625 C-124.50294888 361.00249256 -123.47325224 358.35058628 -122.43945312 355.70019531 C-120.53712424 350.8101518 -118.67299668 345.90606847 -116.8125 341 C-116.1761531 339.3292854 -115.53943724 337.65871129 -114.90234375 335.98828125 C-114.43610596 334.7655249 -114.43610596 334.7655249 -113.96044922 333.51806641 C-112.95439072 330.88042346 -111.94789369 328.24294805 -110.94140625 325.60546875 C-110.2525324 323.79950654 -109.56372982 321.99351714 -108.875 320.1875 C-108.54105225 319.31206543 -108.20710449 318.43663086 -107.86303711 317.53466797 C-105.84549813 312.23931362 -103.85266186 306.93535203 -101.875 301.625 C-99.77779585 295.99688199 -97.57254358 290.4199187 -95.31982422 284.85180664 C-92.33282832 277.41722611 -89.61602324 269.88335206 -86.86572266 262.35888672 C-85.48919363 258.60817509 -84.09049327 254.86587912 -82.6875 251.125 C-82.32398438 250.15348999 -82.32398438 250.15348999 -81.953125 249.16235352 C-80.96158788 246.52070537 -79.96482073 243.92472752 -78.76953125 241.3671875 C-77.81349623 238.42628789 -78.10963892 236.94399518 -79 234 C-80.50171203 232.31892674 -80.50171203 232.31892674 -82.515625 231.01171875 C-83.26134766 230.47869141 -84.00707031 229.94566406 -84.77539062 229.39648438 C-85.59201172 228.83251953 -86.40863281 228.26855469 -87.25 227.6875 C-88.99613806 226.44329364 -90.74088037 225.19712663 -92.484375 223.94921875 C-93.39380859 223.30259277 -94.30324219 222.6559668 -95.24023438 221.98974609 C-99.73083624 218.75209524 -104.11188692 215.37452767 -108.5 212 C-115.20069364 206.8683155 -121.94235465 201.80142592 -128.75 196.8125 C-137.59403892 190.32832817 -146.30590795 183.68317558 -155 177 C-166.10719496 168.46671525 -177.23121998 159.98632657 -188.66772461 151.89648438 C-190.46148021 150.62030436 -192.23345346 149.31358589 -194 148 C-194 147.67 -194 147.34 -194 147 C-147.8 147 -101.6 147 -54 147 C-53.34 144.03 -52.68 141.06 -52 138 C-51.11757717 135.40044783 -50.21002663 132.86600121 -49.20703125 130.31640625 C-48.94018021 129.62305679 -48.67332916 128.92970734 -48.39839172 128.21534729 C-47.54235779 125.99538531 -46.67749927 123.77898195 -45.8125 121.5625 C-45.21734089 120.02285369 -44.62278005 118.48297598 -44.02880859 116.94287109 C-41.64844374 110.77886524 -39.24787683 104.62284207 -36.83203125 98.47265625 C-36.26291761 97.02347803 -35.69389811 95.57426284 -35.125 94.125 C-34.85913086 93.44880615 -34.59326172 92.7726123 -34.31933594 92.07592773 C-31.94397773 85.97705502 -29.82535454 79.79507093 -27.69604492 73.60693359 C-25.30579359 66.72604838 -22.65051309 59.97254869 -19.91259766 53.22363281 C-17.58983526 47.49618085 -15.3691396 41.74096495 -13.22290039 35.9453125 C-11.33419973 30.85576124 -9.36141528 25.80210563 -7.375 20.75 C-4.68714542 13.89912351 -2.21616351 7.02014528 0 0 Z " fill="#FEFEFE" transform="translate(255,64)"/>
<path d="M0 0 C0.33 0 0.66 0 1 0 C1 13.53 1 27.06 1 41 C-12.53 41 -26.06 41 -40 41 C-36.77794772 39.38897386 -33.66489916 38.09649079 -30.3125 36.8125 C-16.32964928 30.99481758 -7.86955879 20.70813891 -2 7 C-1.17794005 4.65968578 -0.55034658 2.42152494 0 0 Z " fill="#000000" transform="translate(511,471)"/>
<path d="M0 0 C1.61102614 3.22205228 2.90350921 6.33510084 4.1875 9.6875 C10.00518242 23.67035072 20.29186109 32.13044121 34 38 C36.34031422 38.82205995 38.57847506 39.44965342 41 40 C41 40.33 41 40.66 41 41 C27.47 41 13.94 41 0 41 C0 27.47 0 13.94 0 0 Z " fill="#000000" transform="translate(0,471)"/>
<path d="M0 0 C13.53 0 27.06 0 41 0 C41 13.53 41 27.06 41 41 C39.38897386 37.77794772 38.09649079 34.66489916 36.8125 31.3125 C30.99481758 17.32964928 20.70813891 8.86955879 7 3 C4.65968578 2.17794005 2.42152494 1.55034658 0 1 C0 0.67 0 0.34 0 0 Z " fill="#000000" transform="translate(471,0)"/>
<path d="M0 0 C13.53 0 27.06 0 41 0 C37.77794772 1.61102614 34.66489916 2.90350921 31.3125 4.1875 C17.32964928 10.00518242 8.86955879 20.29186109 3 34 C2.17794005 36.34031422 1.55034658 38.57847506 1 41 C0.67 41 0.34 41 0 41 C0 27.47 0 13.94 0 0 Z " fill="#000000" transform="translate(0,0)"/>
</svg>
